{
  "accessors": [
    {
      "bufferView": 2,
      "componentType": 5126,
      "count": 14690,
      "max": [
        6.084356784820557,
        5.555542945861816,
        5.377594947814941
      ],
      "min": [
        -6.084356784820557,
        -5.555542945861816,
        0.0
      ],
      "type": "VEC3"
    },
    {
      "bufferView": 0,
      "componentType": 5125,
      "count": 87748,
      "type": "SCALAR"
    },
    {
      "bufferView": 2,
      "byteOffset": 176280,
      "componentType": 5126,
      "count": 5694,
      "max": [
        4.020430088043213,
        2.3687119483947754,
        2.0316429138183594
      ],
      "min": [
        -4.062956809997559,
        -2.849924087524414,
        0.014452760107815266
      ],
      "type": "VEC3"
    },
    {
      "bufferView": 2,
      "byteOffset": 244608,
      "componentType": 5126,
      "count": 5694,
      "max": [
        0.9996927976608276,
        0.9998996257781982,
        0.9999206066131592
      ],
      "min": [
        -0.9996927976608276,
        -0.9998996257781982,
        -0.9999206066131592
      ],
      "type": "VEC3"
    },
    {
      "bufferView": 1,
      "componentType": 5126,
      "count": 5694,
      "max": [
        0.9983779788017273,
        0.9931390285491943
      ],
      "min": [
        0.00317799998447299,
        0.003398000029847026
      ],
      "type": "VEC2"
    },
    {
      "bufferView": 0,
      "byteOffset": 350992,
      "componentType": 5125,
      "count": 27210,
      "type": "SCALAR"
    },
    {
      "bufferView": 2,
      "byteOffset": 312936,
      "componentType": 5126,
      "count": 7296,
      "max": [
        2.0541810989379883,
        0.9005780220031738,
        5.377594947814941
      ],
      "min": [
        -3.7924089431762695,
        -1.9904650449752808,
        1.3585330247879028
      ],
      "type": "VEC3"
    },
    {
      "bufferView": 2,
      "byteOffset": 400488,
      "componentType": 5126,
      "count": 7296,
      "max": [
        0.9987571835517883,
        0.9995430111885071,
        0.9999856948852539
      ],
      "min": [
        -0.9987571835517883,
        -0.9995430111885071,
        -0.9999856948852539
      ],
      "type": "VEC3"
    },
    {
      "bufferView": 0,
      "byteOffset": 459832,
      "componentType": 5125,
      "count": 15840,
      "type": "SCALAR"
    },
    {
      "bufferView": 2,
      "byteOffset": 488040,
      "componentType": 5126,
      "count": 3580,
      "max": [
        2.657731056213379,
        4.637824058532715,
        0.6740593910217285
      ],
      "min": [
        -0.3218235969543457,
        1.6131190061569214,
        0.023507870733737946
      ],
      "type": "VEC3"
    },
    {
      "bufferView": 2,
      "byteOffset": 531000,
      "componentType": 5126,
      "count": 3580,
      "max": [
        0.9999114274978638,
        0.9987831115722656,
        0.9999895095825195
      ],
      "min": [
        -0.9999114274978638,
        -0.9987831115722656,
        -0.9999895095825195
      ],
      "type": "VEC3"
    },
    {
      "bufferView": 1,
      "byteOffset": 45552,
      "componentType": 5126,
      "count": 3580,
      "max": [
        0.9797030091285706,
        1.0285919904708862
      ],
      "min": [
        -5.773160151567288e-15,
        -1.5543120227169823e-15
      ],
      "type": "VEC2"
    },
    {
      "bufferView": 0,
      "byteOffset": 523192,
      "componentType": 5125,
      "count": 8028,
      "type": "SCALAR"
    },
    {
      "bufferView": 2,
      "byteOffset": 573960,
      "componentType": 5126,
      "count": 18648,
      "max": [
        5.269539833068848,
        4.794859886169434,
        1.6648410558700562
      ],
      "min": [
        -3.635354995727539,
        -5.469175815582275,
        0.0
      ],
      "type": "VEC3"
    },
    {
      "bufferView": 2,
      "byteOffset": 797736,
      "componentType": 5126,
      "count": 18648,
      "max": [
        0.9996396899223328,
        0.9991787075996399,
        0.9999771118164063
      ],
      "min": [
        -0.9996396899223328,
        -0.9991787075996399,
        -0.9999771118164063
      ],
      "type": "VEC3"
    },
    {
      "bufferView": 1,
      "byteOffset": 74192,
      "componentType": 5126,
      "count": 18648,
      "max": [
        0.9797030091285706,
        1.0285919904708862
      ],
      "min": [
        -7.549517414484012e-15,
        -4.440892098500626e-15
      ],
      "type": "VEC2"
    },
    {
      "bufferView": 0,
      "byteOffset": 555304,
      "componentType": 5125,
      "count": 40122,
      "type": "SCALAR"
    },
    {
      "bufferView": 2,
      "byteOffset": 1021512,
      "componentType": 5126,
      "count": 1284,
      "max": [
        -2.1377549171447754,
        0.680269718170166,
        3.640285015106201
      ],
      "min": [
        -3.7486610412597656,
        -1.7976080179214478,
        1.7401529550552368
      ],
      "type": "VEC3"
    },
    {
      "bufferView": 2,
      "byteOffset": 1036920,
      "componentType": 5126,
      "count": 1284,
      "max": [
        0.9992824792861938,
        0.9441525936126709,
        0.9966295957565308
      ],
      "min": [
        -0.9992824792861938,
        -0.9441525936126709,
        -0.9966295957565308
      ],
      "type": "VEC3"
    },
    {
      "bufferView": 0,
      "byteOffset": 715792,
      "componentType": 5125,
      "count": 2592,
      "type": "SCALAR"
    },
    {
      "bufferView": 2,
      "byteOffset": 1052328,
      "componentType": 5126,
      "count": 11464,
      "max": [
        1.209643006324768,
        0.907870888710022,
        5.056631088256836
      ],
      "min": [
        -3.781907081604004,
        -1.9977580308914185,
        0.32994839549064636
      ],
      "type": "VEC3"
    },
    {
      "bufferView": 2,
      "byteOffset": 1189896,
      "componentType": 5126,
      "count": 11464,
      "max": [
        0.9999958276748657,
        0.9999958276748657,
        1.0
      ],
      "min": [
        -0.9999958276748657,
        -0.9999958276748657,
        -1.0
      ],
      "type": "VEC3"
    },
    {
      "bufferView": 0,
      "byteOffset": 726160,
      "componentType": 5125,
      "count": 29868,
      "type": "SCALAR"
    },
    {
      "bufferView": 2,
      "byteOffset": 1327464,
      "componentType": 5126,
      "count": 3112,
      "max": [
        6.084356784820557,
        5.555542945861816,
        0.6330909132957458
      ],
      "min": [
        -5.0273871421813965,
        -5.555542945861816,
        0.01649842970073223
      ],
      "type": "VEC3"
    },
    {
      "bufferView": 2,
      "byteOffset": 1364808,
      "componentType": 5126,
      "count": 3112,
      "max": [
        0.9579595923423767,
        0.9579507112503052,
        1.0
      ],
      "min": [
        -0.9579595923423767,
        -0.9579507112503052,
        -1.0
      ],
      "type": "VEC3"
    },
    {
      "bufferView": 1,
      "byteOffset": 223376,
      "componentType": 5126,
      "count": 3112,
      "max": [
        1.0,
        1.0
      ],
      "min": [
        -6.106227164833953e-16,
        -6.106227164833953e-16
      ],
      "type": "VEC2"
    },
    {
      "bufferView": 0,
      "byteOffset": 845632,
      "componentType": 5125,
      "count": 9576,
      "type": "SCALAR"
    },
    {
      "bufferView": 2,
      "byteOffset": 1402152,
      "componentType": 5126,
      "count": 6,
      "max": [
        3.548007011413574,
        -3.683906078338623,
        1.2890959978103638
      ],
      "min": [
        3.5226569175720215,
        -3.7262609004974365,
        1.2741279602050781
      ],
      "type": "VEC3"
    },
    {
      "bufferView": 2,
      "byteOffset": 1402224,
      "componentType": 5126,
      "count": 6,
      "max": [
        0.5980196595191956,
        0.4083860516548157,
        0.9387339949607849
      ],
      "min": [
        -0.5980196595191956,
        -0.4083860516548157,
        -0.9387339949607849
      ],
      "type": "VEC3"
    },
    {
      "bufferView": 1,
      "byteOffset": 248272,
      "componentType": 5126,
      "count": 6,
      "max": [
        1.0,
        1.0
      ],
      "min": [
        0.0,
        0.0
      ],
      "type": "VEC2"
    },
    {
      "bufferView": 0,
      "byteOffset": 883936,
      "componentType": 5125,
      "count": 6,
      "type": "SCALAR"
    },
    {
      "bufferView": 2,
      "byteOffset": 1402296,
      "componentType": 5126,
      "count": 1376,
      "max": [
        1.7971370220184326,
        3.701483964920044,
        2.9490630626678467
      ],
      "min": [
        -1.129606008529663,
        -1.4645960330963135,
        0.384550005197525
      ],
      "type": "VEC3"
    },
    {
      "bufferView": 2,
      "byteOffset": 1418808,
      "componentType": 5126,
      "count": 1376,
      "max": [
        0.9994776248931885,
        0.995882511138916,
        0.9989510178565979
      ],
      "min": [
        -0.9994776248931885,
        -0.995882511138916,
        -0.9989510178565979
      ],
      "type": "VEC3"
    },
    {
      "bufferView": 0,
      "byteOffset": 883960,
      "componentType": 5125,
      "count": 2976,
      "type": "SCALAR"
    },
    {
      "bufferView": 2,
      "byteOffset": 1435320,
      "componentType": 5126,
      "count": 2576,
      "max": [
        1.509950041770935,
        1.6929980516433716,
        0.951555073261261
      ],
      "min": [
        -6.084356784820557,
        0.8863720297813416,
        0.11108150333166122
      ],
      "type": "VEC3"
    },
    {
      "bufferView": 2,
      "byteOffset": 1466232,
      "componentType": 5126,
      "count": 2576,
      "max": [
        0.994723379611969,
        0.9999849200248718,
        0.9998735189437866
      ],
      "min": [
        -0.994723379611969,
        -0.9999849200248718,
        -0.9998735189437866
      ],
      "type": "VEC3"
    },
    {
      "bufferView": 0,
      "byteOffset": 895864,
      "componentType": 5125,
      "count": 6372,
      "type": "SCALAR"
    },
    {
      "bufferView": 2,
      "byteOffset": 1497144,
      "componentType": 5126,
      "count": 12116,
      "max": [
        2.207411050796509,
        4.097531795501709,
        2.966231107711792
      ],
      "min": [
        -1.580706000328064,
        -1.882478952407837,
        0.34039410948753357
      ],
      "type": "VEC3"
    },
    {
      "bufferView": 2,
      "byteOffset": 1642536,
      "componentType": 5126,
      "count": 12116,
      "max": [
        0.9999994039535522,
        0.9999992251396179,
        1.0
      ],
      "min": [
        -0.9999994039535522,
        -0.9999992251396179,
        -1.0
      ],
      "type": "VEC3"
    },
    {
      "bufferView": 0,
      "byteOffset": 921352,
      "componentType": 5125,
      "count": 32868,
      "type": "SCALAR"
    }
  ],
  "asset": {
    "extras": {
      "author": "Bagel (https://sketchfab.com/Green_Katydid)",
      "license": "SKETCHFAB Standard (https://sketchfab.com/licenses)",
      "source": "https://sketchfab.com/3d-models/toast-with-strawberry-jam-bdadb8da741c49308080d748b8d44d11",
      "title": "Toast with strawberry jam"
    },
    "generator": "Sketchfab-16.75.0",
    "version": "2.0"
  },
  "bufferViews": [
    {
      "buffer": 0,
      "byteLength": 1052824,
      "name": "floatBufferViews",
      "target": 34963
    },
    {
      "buffer": 0,
      "byteLength": 248320,
      "byteOffset": 1052824,
      "byteStride": 8,
      "name": "floatBufferViews",
      "target": 34962
    },
    {
      "buffer": 0,
      "byteLength": 1787928,
      "byteOffset": 1301144,
      "byteStride": 12,
      "name": "floatBufferViews",
      "target": 34962
    }
  ],
  "buffers": [
    {
      "byteLength": 3089072,
      "uri": "scene.bin"
    }
  ],
  "extensionsUsed": [
    "KHR_materials_specular"
  ],
  "images": [
    {
      "uri": "textures/Material__1-Map__1685_0_1_baseColor.jpeg"
    },
    {
      "uri": "textures/Material__5-Map__1690_0_5_baseColor.jpeg"
    },
    {
      "uri": "textures/Material__4-Map__1688_0_6_baseColor.jpeg"
    },
    {
      "uri": "textures/Material__4-Map__1688_0_6_specularf0.png"
    },
    {
      "uri": "textures/Material__0-Map__1684_0_7_baseColor.jpeg"
    },
    {
      "uri": "textures/Material__4-Map__1688_0_6_0_baseColor.jpeg"
    }
  ],
  "materials": [
    {
      "alphaMode": "BLEND",
      "name": "edge_color000255",
      "pbrMetallicRoughness": {
        "baseColorFactor": [
          1.0,
          1.0,
          1.0,
          0.0
        ],
        "metallicFactor": 0.0,
        "roughnessFactor": 0.6
      }
    },
    {
      "name": "Material__1-Map__1685_0_1",
      "pbrMetallicRoughness": {
        "baseColorTexture": {
          "index": 0
        },
        "metallicFactor": 0.0,
        "roughnessFactor": 0.6
      }
    },
    {
      "name": "11_0_2",
      "pbrMetallicRoughness": {
        "baseColorFactor": [
          0.231373,
          0.231373,
          0.231373,
          1.0
        ],
        "metallicFactor": 0.0,
        "roughnessFactor": 0.6
      }
    },
    {
      "name": "Material__5-Map__1690_0_5",
      "pbrMetallicRoughness": {
        "baseColorTexture": {
          "index": 1
        },
        "metallicFactor": 0.0,
        "roughnessFactor": 0.6
      }
    },
    {
      "extensions": {
        "KHR_materials_specular": {
          "specularColorFactor": [
            1.0,
            1.0,
            1.0
          ],
          "specularFactor": 1.0,
          "specularTexture": {
            "index": 3
          }
        }
      },
      "name": "Material__4-Map__1688_0_6",
      "pbrMetallicRoughness": {
        "baseColorTexture": {
          "index": 2
        },
        "metallicFactor": 0.0,
        "roughnessFactor": 0.6
      }
    },
    {
      "name": "22_-_Default_0_3",
      "pbrMetallicRoughness": {
        "baseColorFactor": [
          0.509804,
          0.435294,
          0.368627,
          1.0
        ],
        "metallicFactor": 0.0,
        "roughnessFactor": 0.6
      }
    },
    {
      "alphaMode": "BLEND",
      "name": "zz_0_4",
      "pbrMetallicRoughness": {
        "baseColorFactor": [
          1.0,
          1.0,
          1.0,
          0.19040697674418605
        ],
        "metallicFactor": 0.0,
        "roughnessFactor": 0.0
      }
    },
    {
      "name": "Material__0-Map__1684_0_7",
      "pbrMetallicRoughness": {
        "baseColorTexture": {
          "index": 4
        },
        "metallicFactor": 0.0,
        "roughnessFactor": 0.0
      }
    },
    {
      "extensions": {
        "KHR_materials_specular": {
          "specularColorFactor": [
            1.0,
            1.0,
            1.0
          ],
          "specularFactor": 1.0,
          "specularTexture": {
            "index": 3
          }
        }
      },
      "name": "Material__4-Map__1688_0_6_0",
      "pbrMetallicRoughness": {
        "baseColorTexture": {
          "index": 5
        },
        "metallicFactor": 0.0,
        "roughnessFactor": 0.6
      }
    },
    {
      "name": "17_-_Default_0_9",
      "pbrMetallicRoughness": {
        "baseColorFactor": [
          0.564706,
          0.0,
          0.0,
          1.0
        ],
        "metallicFactor": 0.0,
        "roughnessFactor": 0.6
      }
    },
    {
      "name": "14_-_Default_0_8",
      "pbrMetallicRoughness": {
        "baseColorFactor": [
          0.454902,
          0.454902,
          0.454902,
          1.0
        ],
        "metallicFactor": 0.8183139534883721,
        "roughnessFactor": 0.16715116279069767
      }
    },
    {
      "name": "19_-_Default_0_10",
      "pbrMetallicRoughness": {
        "baseColorFactor": [
          0.466667,
          0.0,
          0.0,
          1.0
        ],
        "metallicFactor": 0.0,
        "roughnessFactor": 0.6
      }
    }
  ],
  "meshes": [
    {
      "name": "Material3",
      "primitives": [
        {
          "attributes": {
            "POSITION": 0
          },
          "indices": 1,
          "material": 0,
          "mode": 1
        }
      ]
    },
    {
      "name": "Material2",
      "primitives": [
        {
          "attributes": {
            "NORMAL": 3,
            "POSITION": 2,
            "TEXCOORD_0": 4
          },
          "indices": 5,
          "material": 1,
          "mode": 4
        }
      ]
    },
    {
      "name": "Material2",
      "primitives": [
        {
          "attributes": {
            "NORMAL": 7,
            "POSITION": 6
          },
          "indices": 8,
          "material": 2,
          "mode": 4
        }
      ]
    },
    {
      "name": "Material2",
      "primitives": [
        {
          "attributes": {
            "NORMAL": 10,
            "POSITION": 9,
            "TEXCOORD_0": 11
          },
          "indices": 12,
          "material": 3,
          "mode": 4
        }
      ]
    },
    {
      "name": "Material2",
      "primitives": [
        {
          "attributes": {
            "NORMAL": 14,
            "POSITION": 13,
            "TEXCOORD_0": 15
          },
          "indices": 16,
          "material": 4,
          "mode": 4
        }
      ]
    },
    {
      "name": "Material2",
      "primitives": [
        {
          "attributes": {
            "NORMAL": 18,
            "POSITION": 17
          },
          "indices": 19,
          "material": 5,
          "mode": 4
        }
      ]
    },
    {
      "name": "Material2",
      "primitives": [
        {
          "attributes": {
            "NORMAL": 21,
            "POSITION": 20
          },
          "indices": 22,
          "material": 6,
          "mode": 4
        }
      ]
    },
    {
      "name": "Material2",
      "primitives": [
        {
          "attributes": {
            "NORMAL": 24,
            "POSITION": 23,
            "TEXCOORD_0": 25
          },
          "indices": 26,
          "material": 7,
          "mode": 4
        }
      ]
    },
    {
      "name": "Material3",
      "primitives": [
        {
          "attributes": {
            "NORMAL": 28,
            "POSITION": 27,
            "TEXCOORD_0": 29
          },
          "indices": 30,
          "material": 8,
          "mode": 4
        }
      ]
    },
    {
      "name": "Material2",
      "primitives": [
        {
          "attributes": {
            "NORMAL": 32,
            "POSITION": 31
          },
          "indices": 33,
          "material": 9,
          "mode": 4
        }
      ]
    },
    {
      "name": "Material2",
      "primitives": [
        {
          "attributes": {
            "NORMAL": 35,
            "POSITION": 34
          },
          "indices": 36,
          "material": 10,
          "mode": 4
        }
      ]
    },
    {
      "name": "Material2",
      "primitives": [
        {
          "attributes": {
            "NORMAL": 38,
            "POSITION": 37
          },
          "indices": 39,
          "material": 11,
          "mode": 4
        }
      ]
    }
  ],
  "nodes": [
    {
      "children": [
        1
      ],
      "matrix": [
        1.0,
        0.0,
        0.0,
        0.0,
        0.0,
        2.220446049250313e-16,
        -1.0,
        0.0,
        0.0,
        1.0,
        2.220446049250313e-16,
        0.0,
        0.0,
        0.0,
        0.0,
        1.0
      ],
      "name": "Sketchfab_model"
    },
    {
      "children": [
        2,
        3,
        4,
        5,
        6,
        7,
        8,
        9,
        10,
        11,
        12,
        13,
        14
      ],
      "name": "Collada visual scene group"
    },
    {
      "mesh": 0,
      "name": "Material3"
    },
    {
      "mesh": 1,
      "name": "Material2"
    },
    {
      "mesh": 2,
      "name": "Material2"
    },
    {
      "mesh": 3,
      "name": "Material2"
    },
    {
      "mesh": 4,
      "name": "Material2"
    },
    {
      "mesh": 5,
      "name": "Material2"
    },
    {
      "mesh": 6,
      "name": "Material2"
    },
    {
      "mesh": 7,
      "name": "Material2"
    },
    {
      "mesh": 8,
      "name": "Material3"
    },
    {
      "mesh": 9,
      "name": "Material2"
    },
    {
      "mesh": 10,
      "name": "Material2"
    },
    {
      "mesh": 11,
      "name": "Material2"
    },
    {
      "children": [
        15,
        17,
        19
      ],
      "name": "SketchUp"
    },
    {
      "children": [
        16
      ],
      "matrix": [
        -0.7336787,
        0.6794966,
        2.775558e-17,
        0.0,
        -0.3624761,
        -0.3913794,
        0.8458328,
        0.0,
        0.5747405,
        0.6205695,
        0.533448,
        0.0,
        12.35472,
        14.16085,
        12.73119,
        1.0
      ],
      "name": "skp_camera_Last_Saved_SketchUp_View"
    },
    {
      "name": "ID1"
    },
    {
      "children": [
        18
      ],
      "matrix": [
        -0.9739508,
        -0.2267594,
        0.0,
        0.0,
        0.1113067,
        -0.4780718,
        0.8712394,
        0.0,
        -0.1975617,
        0.8485444,
        0.4908583,
        0.0,
        -1.996274,
        12.05291,
        7.832524,
        1.0
      ],
      "name": "skp_camera_View_0"
    },
    {
      "name": "ID2"
    },
    {
      "children": [
        20
      ],
      "matrix": [
        1.0,
        0.0,
        0.0,
        0.0,
        0.0,
        0.0,
        1.0,
        0.0,
        0.0,
        -1.0,
        0.0,
        0.0,
        -3.937008e-07,
        -5.555543,
        2.688798,
        1.0
      ],
      "name": "skp_camera_Parallel_View"
    },
    {
      "name": "ID3"
    }
  ],
  "samplers": [
    {
      "magFilter": 9729,
      "minFilter": 9987,
      "wrapS": 10497,
      "wrapT": 10497
    }
  ],
  "scene": 0,
  "scenes": [
    {
      "name": "Sketchfab_Scene",
      "nodes": [
        0
      ]
    }
  ],
  "textures": [
    {
      "sampler": 0,
      "source": 0
    },
    {
      "sampler": 0,
      "source": 1
    },
    {
      "sampler": 0,
      "source": 2
    },
    {
      "sampler": 0,
      "source": 3
    },
    {
      "sampler": 0,
      "source": 4
    },
    {
      "sampler": 0,
      "source": 5
    }
  ]
}
