{
  "accessors": [
    {
      "bufferView": 2,
      "componentType": 5126,
      "count": 272,
      "max": [
        1.0,
        1.0,
        1.0
      ],
      "min": [
        -9.261861801147461,
        -1.0000038146972656,
        -1.0
      ],
      "type": "VEC3"
    },
    {
      "bufferView": 2,
      "byteOffset": 3264,
      "componentType": 5126,
      "count": 272,
      "max": [
        1.0,
        1.0,
        1.0
      ],
      "min": [
        -1.0,
        -1.0,
        -1.0
      ],
      "type": "VEC3"
    },
    {
      "bufferView": 3,
      "componentType": 5126,
      "count": 272,
      "max": [
        0.21407297253608704,
        0.21919575333595276,
        1.3904988804824825e-07,
        -1.0
      ],
      "min": [
        -0.21407131850719452,
        -1.0,
        -1.0,
        -1.0
      ],
      "type": "VEC4"
    },
    {
      "bufferView": 1,
      "componentType": 5126,
      "count": 272,
      "max": [
        0.8051325082778931,
        2.002136707305908
      ],
      "min": [
        -0.13846585154533386,
        -0.728223443031311
      ],
      "type": "VEC2"
    },
    {
      "bufferView": 1,
      "byteOffset": 2176,
      "componentType": 5126,
      "count": 272,
      "max": [
        0.8051325082778931,
        2.002136707305908
      ],
      "min": [
        -0.13846585154533386,
        -0.728223443031311
      ],
      "type": "VEC2"
    },
    {
      "bufferView": 0,
      "componentType": 5125,
      "count": 444,
      "type": "SCALAR"
    },
    {
      "bufferView": 2,
      "byteOffset": 6528,
      "componentType": 5126,
      "count": 116,
      "max": [
        1.0,
        8.174529075622559,
        1.0
      ],
      "min": [
        -1.0,
        -9.259964942932129,
        -2.83297061920166
      ],
      "type": "VEC3"
    },
    {
      "bufferView": 2,
      "byteOffset": 7920,
      "componentType": 5126,
      "count": 116,
      "max": [
        1.0,
        1.0,
        1.0
      ],
      "min": [
        -1.0,
        -1.0,
        -1.0
      ],
      "type": "VEC3"
    },
    {
      "bufferView": 3,
      "byteOffset": 4352,
      "componentType": 5126,
      "count": 116,
      "max": [
        0.9993003606796265,
        0.9999995827674866,
        1.5269665709638502e-07,
        -1.0
      ],
      "min": [
        -0.9993003606796265,
        -1.0,
        -1.0,
        -1.0
      ],
      "type": "VEC4"
    },
    {
      "bufferView": 1,
      "byteOffset": 4352,
      "componentType": 5126,
      "count": 116,
      "max": [
        1.1193594932556152,
        2.842081069946289
      ],
      "min": [
        -0.11935955286026001,
        -1.842081069946289
      ],
      "type": "VEC2"
    },
    {
      "bufferView": 1,
      "byteOffset": 5280,
      "componentType": 5126,
      "count": 116,
      "max": [
        1.1193594932556152,
        2.842081069946289
      ],
      "min": [
        -0.11935955286026001,
        -1.842081069946289
      ],
      "type": "VEC2"
    },
    {
      "bufferView": 0,
      "byteOffset": 1776,
      "componentType": 5125,
      "count": 204,
      "type": "SCALAR"
    },
    {
      "bufferView": 2,
      "byteOffset": 9312,
      "componentType": 5126,
      "count": 116,
      "max": [
        1.0,
        8.174529075622559,
        2.8420605659484863
      ],
      "min": [
        -1.0,
        -9.259964942932129,
        -1.0
      ],
      "type": "VEC3"
    },
    {
      "bufferView": 2,
      "byteOffset": 10704,
      "componentType": 5126,
      "count": 116,
      "max": [
        1.0,
        1.0,
        1.0
      ],
      "min": [
        -1.0,
        -1.0,
        -1.0
      ],
      "type": "VEC3"
    },
    {
      "bufferView": 3,
      "byteOffset": 6208,
      "componentType": 5126,
      "count": 116,
      "max": [
        0.9993003606796265,
        0.9999995827674866,
        1.5269665709638502e-07,
        -1.0
      ],
      "min": [
        -0.9993003606796265,
        -1.0,
        -1.0,
        -1.0
      ],
      "type": "VEC4"
    },
    {
      "bufferView": 1,
      "byteOffset": 6208,
      "componentType": 5126,
      "count": 116,
      "max": [
        1.1193594932556152,
        2.842081069946289
      ],
      "min": [
        -0.11935955286026001,
        -1.842081069946289
      ],
      "type": "VEC2"
    },
    {
      "bufferView": 1,
      "byteOffset": 7136,
      "componentType": 5126,
      "count": 116,
      "max": [
        1.1193594932556152,
        2.842081069946289
      ],
      "min": [
        -0.11935955286026001,
        -1.842081069946289
      ],
      "type": "VEC2"
    },
    {
      "bufferView": 0,
      "byteOffset": 2592,
      "componentType": 5125,
      "count": 204,
      "type": "SCALAR"
    },
    {
      "bufferView": 2,
      "byteOffset": 12096,
      "componentType": 5126,
      "count": 48,
      "max": [
        1.0,
        1.0,
        1.0
      ],
      "min": [
        -3.0654869079589844,
        -1.0,
        -1.0
      ],
      "type": "VEC3"
    },
    {
      "bufferView": 2,
      "byteOffset": 12672,
      "componentType": 5126,
      "count": 48,
      "max": [
        1.0,
        1.0,
        1.0
      ],
      "min": [
        -1.0,
        -1.0,
        -1.0
      ],
      "type": "VEC3"
    },
    {
      "bufferView": 3,
      "byteOffset": 8064,
      "componentType": 5126,
      "count": 48,
      "max": [
        2.526695368487708e-07,
        0.0,
        0.0,
        -1.0
      ],
      "min": [
        -1.2633479684609483e-07,
        -1.0,
        -1.0,
        -1.0
      ],
      "type": "VEC4"
    },
    {
      "bufferView": 1,
      "byteOffset": 8064,
      "componentType": 5126,
      "count": 48,
      "max": [
        0.8051325082778931,
        2.002136707305908
      ],
      "min": [
        -0.13846585154533386,
        -0.728223443031311
      ],
      "type": "VEC2"
    },
    {
      "bufferView": 1,
      "byteOffset": 8448,
      "componentType": 5126,
      "count": 48,
      "max": [
        0.8051325082778931,
        2.002136707305908
      ],
      "min": [
        -0.13846585154533386,
        -0.728223443031311
      ],
      "type": "VEC2"
    },
    {
      "bufferView": 0,
      "byteOffset": 3408,
      "componentType": 5125,
      "count": 72,
      "type": "SCALAR"
    },
    {
      "bufferView": 2,
      "byteOffset": 13248,
      "componentType": 5126,
      "count": 48,
      "max": [
        1.0000005960464478,
        1.0000001192092896,
        1.0
      ],
      "min": [
        -1.0,
        -1.0000001192092896,
        -39.66106033325195
      ],
      "type": "VEC3"
    },
    {
      "bufferView": 2,
      "byteOffset": 13824,
      "componentType": 5126,
      "count": 48,
      "max": [
        1.0,
        1.0,
        1.0
      ],
      "min": [
        -1.0,
        -1.0,
        -1.0
      ],
      "type": "VEC3"
    },
    {
      "bufferView": 3,
      "byteOffset": 8832,
      "componentType": 5126,
      "count": 48,
      "max": [
        2.3841863594498136e-07,
        0.0,
        1.0,
        -1.0
      ],
      "min": [
        -2.3841863594498136e-07,
        -1.0,
        -1.0,
        -1.0
      ],
      "type": "VEC4"
    },
    {
      "bufferView": 1,
      "byteOffset": 8832,
      "componentType": 5126,
      "count": 48,
      "max": [
        0.7499999403953552,
        1.0
      ],
      "min": [
        -7.54978870531886e-08,
        5.960464477539063e-08
      ],
      "type": "VEC2"
    },
    {
      "bufferView": 1,
      "byteOffset": 9216,
      "componentType": 5126,
      "count": 48,
      "max": [
        0.7499999403953552,
        1.0
      ],
      "min": [
        -7.54978870531886e-08,
        5.960464477539063e-08
      ],
      "type": "VEC2"
    },
    {
      "bufferView": 0,
      "byteOffset": 3696,
      "componentType": 5125,
      "count": 72,
      "type": "SCALAR"
    },
    {
      "bufferView": 2,
      "byteOffset": 14400,
      "componentType": 5126,
      "count": 48,
      "max": [
        1.0000001192092896,
        1.0000001192092896,
        1.0
      ],
      "min": [
        -1.0000001192092896,
        -1.0000001192092896,
        -39.66106033325195
      ],
      "type": "VEC3"
    },
    {
      "bufferView": 2,
      "byteOffset": 14976,
      "componentType": 5126,
      "count": 48,
      "max": [
        1.0,
        1.0,
        1.0
      ],
      "min": [
        -1.0,
        -1.0,
        -1.0
      ],
      "type": "VEC3"
    },
    {
      "bufferView": 3,
      "byteOffset": 9600,
      "componentType": 5126,
      "count": 48,
      "max": [
        2.3841863594498136e-07,
        0.0,
        1.0,
        -1.0
      ],
      "min": [
        -2.3841863594498136e-07,
        -1.0,
        -1.0,
        -1.0
      ],
      "type": "VEC4"
    },
    {
      "bufferView": 1,
      "byteOffset": 9600,
      "componentType": 5126,
      "count": 48,
      "max": [
        0.7499999403953552,
        1.0
      ],
      "min": [
        -7.54978870531886e-08,
        5.960464477539063e-08
      ],
      "type": "VEC2"
    },
    {
      "bufferView": 1,
      "byteOffset": 9984,
      "componentType": 5126,
      "count": 48,
      "max": [
        0.7499999403953552,
        1.0
      ],
      "min": [
        -7.54978870531886e-08,
        5.960464477539063e-08
      ],
      "type": "VEC2"
    },
    {
      "bufferView": 0,
      "byteOffset": 3984,
      "componentType": 5125,
      "count": 72,
      "type": "SCALAR"
    },
    {
      "bufferView": 2,
      "byteOffset": 15552,
      "componentType": 5126,
      "count": 48,
      "max": [
        3.0654869079589844,
        1.0,
        1.0
      ],
      "min": [
        -1.0,
        -1.0,
        -1.0
      ],
      "type": "VEC3"
    },
    {
      "bufferView": 2,
      "byteOffset": 16128,
      "componentType": 5126,
      "count": 48,
      "max": [
        1.0,
        1.0,
        1.0
      ],
      "min": [
        -1.0,
        -1.0,
        -1.0
      ],
      "type": "VEC3"
    },
    {
      "bufferView": 3,
      "byteOffset": 10368,
      "componentType": 5126,
      "count": 48,
      "max": [
        2.526695368487708e-07,
        0.0,
        0.0,
        -1.0
      ],
      "min": [
        -1.2633479684609483e-07,
        -1.0,
        -1.0,
        -1.0
      ],
      "type": "VEC4"
    },
    {
      "bufferView": 1,
      "byteOffset": 10368,
      "componentType": 5126,
      "count": 48,
      "max": [
        0.8051325082778931,
        2.002136707305908
      ],
      "min": [
        -0.13846585154533386,
        -0.728223443031311
      ],
      "type": "VEC2"
    },
    {
      "bufferView": 1,
      "byteOffset": 10752,
      "componentType": 5126,
      "count": 48,
      "max": [
        0.8051325082778931,
        2.002136707305908
      ],
      "min": [
        -0.13846585154533386,
        -0.728223443031311
      ],
      "type": "VEC2"
    },
    {
      "bufferView": 0,
      "byteOffset": 4272,
      "componentType": 5125,
      "count": 72,
      "type": "SCALAR"
    },
    {
      "bufferView": 2,
      "byteOffset": 16704,
      "componentType": 5126,
      "count": 264,
      "max": [
        18.43311882019043,
        2.9503698348999023,
        18.520465850830078
      ],
      "min": [
        -18.40407371520996,
        -1.0,
        -28.28403091430664
      ],
      "type": "VEC3"
    },
    {
      "bufferView": 2,
      "byteOffset": 19872,
      "componentType": 5126,
      "count": 264,
      "max": [
        1.0,
        1.0,
        1.0
      ],
      "min": [
        -1.0,
        -1.0,
        -1.0
      ],
      "type": "VEC3"
    },
    {
      "bufferView": 3,
      "byteOffset": 11136,
      "componentType": 5126,
      "count": 264,
      "max": [
        1.0,
        0.9994732141494751,
        0.05561366677284241,
        -1.0
      ],
      "min": [
        -1.0,
        -1.0,
        -1.0,
        -1.0
      ],
      "type": "VEC4"
    },
    {
      "bufferView": 1,
      "byteOffset": 11136,
      "componentType": 5126,
      "count": 264,
      "max": [
        3.852266550064087,
        1.1743199825286865
      ],
      "min": [
        -3.6286518573760986,
        -0.17431998252868652
      ],
      "type": "VEC2"
    },
    {
      "bufferView": 1,
      "byteOffset": 13248,
      "componentType": 5126,
      "count": 264,
      "max": [
        3.852266550064087,
        1.1743199825286865
      ],
      "min": [
        -3.6286518573760986,
        -0.17431998252868652
      ],
      "type": "VEC2"
    },
    {
      "bufferView": 0,
      "byteOffset": 4560,
      "componentType": 5125,
      "count": 468,
      "type": "SCALAR"
    }
  ],
  "asset": {
    "extras": {
      "author": "TDR (https://sketchfab.com/nusunttdr)",
      "license": "SKETCHFAB Standard (https://sketchfab.com/licenses)",
      "source": "https://sketchfab.com/3d-models/rustic-wooden-picnic-table-high-quality-3d-model-ba8d4ccc90ff4f27a70eb127c91e3b8d",
      "title": "Rustic Wooden Picnic Table High-Quality 3D Model"
    },
    "generator": "Sketchfab-16.54.0",
    "version": "2.0"
  },
  "bufferViews": [
    {
      "buffer": 0,
      "byteLength": 6432,
      "name": "floatBufferViews",
      "target": 34963
    },
    {
      "buffer": 0,
      "byteLength": 15360,
      "byteOffset": 6432,
      "byteStride": 8,
      "name": "floatBufferViews",
      "target": 34962
    },
    {
      "buffer": 0,
      "byteLength": 23040,
      "byteOffset": 21792,
      "byteStride": 12,
      "name": "floatBufferViews",
      "target": 34962
    },
    {
      "buffer": 0,
      "byteLength": 15360,
      "byteOffset": 44832,
      "byteStride": 16,
      "name": "floatBufferViews",
      "target": 34962
    }
  ],
  "buffers": [
    {
      "byteLength": 60192,
      "uri": "scene.bin"
    }
  ],
  "extensionsUsed": [
    "KHR_materials_specular"
  ],
  "images": [
    {
      "uri": "textures/wood_baseColor.jpeg"
    },
    {
      "uri": "textures/wood_normal.jpeg"
    },
    {
      "uri": "textures/wood_specularf0.png"
    }
  ],
  "materials": [
    {
      "doubleSided": true,
      "extensions": {
        "KHR_materials_specular": {
          "specularColorFactor": [
            1.0,
            1.0,
            1.0
          ],
          "specularFactor": 1.0,
          "specularTexture": {
            "index": 2
          }
        }
      },
      "name": "wood",
      "normalTexture": {
        "index": 1,
        "scale": 0.8
      },
      "pbrMetallicRoughness": {
        "baseColorTexture": {
          "index": 0
        },
        "metallicFactor": 0.0
      }
    }
  ],
  "meshes": [
    {
      "name": "Object_0",
      "primitives": [
        {
          "attributes": {
            "NORMAL": 1,
            "POSITION": 0,
            "TANGENT": 2,
            "TEXCOORD_0": 3,
            "TEXCOORD_1": 4
          },
          "indices": 5,
          "material": 0,
          "mode": 4
        }
      ]
    },
    {
      "name": "Object_1",
      "primitives": [
        {
          "attributes": {
            "NORMAL": 7,
            "POSITION": 6,
            "TANGENT": 8,
            "TEXCOORD_0": 9,
            "TEXCOORD_1": 10
          },
          "indices": 11,
          "material": 0,
          "mode": 4
        }
      ]
    },
    {
      "name": "Object_2",
      "primitives": [
        {
          "attributes": {
            "NORMAL": 13,
            "POSITION": 12,
            "TANGENT": 14,
            "TEXCOORD_0": 15,
            "TEXCOORD_1": 16
          },
          "indices": 17,
          "material": 0,
          "mode": 4
        }
      ]
    },
    {
      "name": "Object_3",
      "primitives": [
        {
          "attributes": {
            "NORMAL": 19,
            "POSITION": 18,
            "TANGENT": 20,
            "TEXCOORD_0": 21,
            "TEXCOORD_1": 22
          },
          "indices": 23,
          "material": 0,
          "mode": 4
        }
      ]
    },
    {
      "name": "Object_4",
      "primitives": [
        {
          "attributes": {
            "NORMAL": 25,
            "POSITION": 24,
            "TANGENT": 26,
            "TEXCOORD_0": 27,
            "TEXCOORD_1": 28
          },
          "indices": 29,
          "material": 0,
          "mode": 4
        }
      ]
    },
    {
      "name": "Object_5",
      "primitives": [
        {
          "attributes": {
            "NORMAL": 31,
            "POSITION": 30,
            "TANGENT": 32,
            "TEXCOORD_0": 33,
            "TEXCOORD_1": 34
          },
          "indices": 35,
          "material": 0,
          "mode": 4
        }
      ]
    },
    {
      "name": "Object_6",
      "primitives": [
        {
          "attributes": {
            "NORMAL": 37,
            "POSITION": 36,
            "TANGENT": 38,
            "TEXCOORD_0": 39,
            "TEXCOORD_1": 40
          },
          "indices": 41,
          "material": 0,
          "mode": 4
        }
      ]
    },
    {
      "name": "Object_7",
      "primitives": [
        {
          "attributes": {
            "NORMAL": 43,
            "POSITION": 42,
            "TANGENT": 44,
            "TEXCOORD_0": 45,
            "TEXCOORD_1": 46
          },
          "indices": 47,
          "material": 0,
          "mode": 4
        }
      ]
    }
  ],
  "nodes": [
    {
      "children": [
        1
      ],
      "matrix": [
        1.0,
        0.0,
        0.0,
        0.0,
        0.0,
        2.220446049250313e-16,
        -1.0,
        0.0,
        0.0,
        1.0,
        2.220446049250313e-16,
        0.0,
        0.0,
        0.0,
        0.0,
        1.0
      ],
      "name": "Sketchfab_model"
    },
    {
      "children": [
        2
      ],
      "name": "root"
    },
    {
      "children": [
        3,
        5,
        7,
        9,
        11,
        13,
        15,
        17
      ],
      "matrix": [
        1.0,
        0.0,
        0.0,
        0.0,
        0.0,
        2.220446049250313e-16,
        1.0,
        0.0,
        0.0,
        -1.0,
        2.220446049250313e-16,
        0.0,
        0.0,
        0.0,
        0.0,
        1.0
      ],
      "name": "GLTF_SceneRootNode"
    },
    {
      "children": [
        4
      ],
      "matrix": [
        0.4203754663467407,
        0.0,
        0.0,
        0.0,
        0.0,
        0.08345570415258408,
        0.0,
        0.0,
        0.0,
        0.0,
        4.350061416625977,
        0.0,
        1.740038514137268,
        4.105954170227051,
        0.0,
        1.0
      ],
      "name": "Cube.004_0"
    },
    {
      "mesh": 0,
      "name": "Object_4"
    },
    {
      "children": [
        6
      ],
      "matrix": [
        4.149777412414551,
        0.0,
        0.0,
        0.0,
        0.0,
        0.22504834830760956,
        0.0,
        0.0,
        0.0,
        0.0,
        0.13252224028110504,
        0.0,
        -0.13444185256958008,
        2.2055814266204834,
        -2.8078131675720215,
        1.0
      ],
      "name": "Cube.011_1"
    },
    {
      "mesh": 1,
      "name": "Object_6"
    },
    {
      "children": [
        8
      ],
      "matrix": [
        4.149777412414551,
        0.0,
        0.0,
        0.0,
        0.0,
        0.22504834830760956,
        0.0,
        0.0,
        0.0,
        0.0,
        0.13252224028110504,
        0.0,
        -0.13444185256958008,
        2.2055814266204834,
        2.808784008026123,
        1.0
      ],
      "name": "Cube.012_2"
    },
    {
      "mesh": 2,
      "name": "Object_8"
    },
    {
      "children": [
        10
      ],
      "matrix": [
        0.4823715388774872,
        0.0,
        0.0,
        0.0,
        0.0,
        0.11626684665679932,
        0.0,
        0.0,
        0.0,
        0.0,
        3.9010162353515625,
        0.0,
        3.6080243587493896,
        2.517677068710327,
        0.015457002446055412,
        1.0
      ],
      "name": "Cube.014_3"
    },
    {
      "mesh": 3,
      "name": "Object_10"
    },
    {
      "children": [
        12
      ],
      "matrix": [
        0.7166622281074524,
        0.0,
        0.0,
        0.0,
        0.0,
        0.07459349185228348,
        0.0,
        0.0,
        0.0,
        0.0,
        0.1327502727508545,
        0.0,
        3.141843557357788,
        2.3524413108825684,
        2.5711071491241455,
        1.0
      ],
      "name": "Cube.015_4"
    },
    {
      "mesh": 4,
      "name": "Object_12"
    },
    {
      "children": [
        14
      ],
      "matrix": [
        0.7166622281074524,
        0.0,
        0.0,
        0.0,
        0.0,
        0.07459349185228348,
        0.0,
        0.0,
        0.0,
        0.0,
        0.1327502727508545,
        0.0,
        -3.407011032104492,
        2.3524413108825684,
        2.5711071491241455,
        1.0
      ],
      "name": "Cube.018_5"
    },
    {
      "mesh": 5,
      "name": "Object_14"
    },
    {
      "children": [
        16
      ],
      "matrix": [
        0.4823715388774872,
        0.0,
        0.0,
        0.0,
        0.0,
        0.11626684665679932,
        0.0,
        0.0,
        0.0,
        0.0,
        3.9010162353515625,
        0.0,
        -3.937162399291992,
        2.517677068710327,
        0.015457002446055412,
        1.0
      ],
      "name": "Cube.020_6"
    },
    {
      "mesh": 6,
      "name": "Object_16"
    },
    {
      "children": [
        18
      ],
      "matrix": [
        0.10220041871070862,
        0.0,
        0.0,
        0.0,
        0.0,
        0.8305449438706455,
        -1.3359482036770858,
        0.0,
        0.0,
        0.08793307654542921,
        0.05466706862046086,
        0.0,
        0.006784498691558838,
        3.054259777069092,
        1.4147922992706299,
        1.0
      ],
      "name": "Cube.022_7"
    },
    {
      "mesh": 7,
      "name": "Object_18"
    }
  ],
  "samplers": [
    {
      "magFilter": 9729,
      "minFilter": 9987,
      "wrapS": 10497,
      "wrapT": 10497
    }
  ],
  "scene": 0,
  "scenes": [
    {
      "name": "Sketchfab_Scene",
      "nodes": [
        0
      ]
    }
  ],
  "textures": [
    {
      "sampler": 0,
      "source": 0
    },
    {
      "sampler": 0,
      "source": 1
    },
    {
      "sampler": 0,
      "source": 2
    }
  ]
}
