{
  "accessors": [
    {
      "bufferView": 2,
      "componentType": 5126,
      "count": 65532,
      "max": [
        -0.1732485294342041,
        0.7090632915496826,
        0.04261105880141258
      ],
      "min": [
        -0.5464028120040894,
        0.27514252066612244,
        -0.22639469802379608
      ],
      "type": "VEC3"
    },
    {
      "bufferView": 2,
      "byteOffset": 786384,
      "componentType": 5126,
      "count": 65532,
      "max": [
        0.9671118855476379,
        0.9999930262565613,
        0.9999993443489075
      ],
      "min": [
        -0.999354362487793,
        -0.9989438056945801,
        -0.9999995827674866
      ],
      "type": "VEC3"
    },
    {
      "bufferView": 1,
      "componentType": 5126,
      "count": 65532,
      "max": [
        0.8503656387329102,
        0.7468216419219971
      ],
      "min": [
        0.5131800770759583,
        0.17065513134002686
      ],
      "type": "VEC2"
    },
    {
      "bufferView": 1,
      "byteOffset": 524256,
      "componentType": 5126,
      "count": 65532,
      "max": [
        0.8503656387329102,
        0.7468216419219971
      ],
      "min": [
        0.5131800770759583,
        0.17065513134002686
      ],
      "type": "VEC2"
    },
    {
      "bufferView": 1,
      "byteOffset": 1048512,
      "componentType": 5126,
      "count": 65532,
      "max": [
        0.8503656387329102,
        0.7468216419219971
      ],
      "min": [
        0.5131800770759583,
        0.17065513134002686
      ],
      "type": "VEC2"
    },
    {
      "bufferView": 0,
      "componentType": 5125,
      "count": 373530,
      "type": "SCALAR"
    },
    {
      "bufferView": 2,
      "byteOffset": 1572768,
      "componentType": 5126,
      "count": 65532,
      "max": [
        -0.18050368130207062,
        0.708975613117218,
        0.1525411158800125
      ],
      "min": [
        -0.4551698565483093,
        -0.41939374804496765,
        -0.22091740369796753
      ],
      "type": "VEC3"
    },
    {
      "bufferView": 2,
      "byteOffset": 2359152,
      "componentType": 5126,
      "count": 65532,
      "max": [
        0.999931275844574,
        0.9995656609535217,
        0.9999904632568359
      ],
      "min": [
        -0.9999971389770508,
        -0.9999520778656006,
        -0.9997507929801941
      ],
      "type": "VEC3"
    },
    {
      "bufferView": 1,
      "byteOffset": 1572768,
      "componentType": 5126,
      "count": 65532,
      "max": [
        0.9963788986206055,
        0.9999561905860901
      ],
      "min": [
        0.0067125000059604645,
        0.00464099645614624
      ],
      "type": "VEC2"
    },
    {
      "bufferView": 1,
      "byteOffset": 2097024,
      "componentType": 5126,
      "count": 65532,
      "max": [
        0.9963788986206055,
        0.9999561905860901
      ],
      "min": [
        0.0067125000059604645,
        0.00464099645614624
      ],
      "type": "VEC2"
    },
    {
      "bufferView": 1,
      "byteOffset": 2621280,
      "componentType": 5126,
      "count": 65532,
      "max": [
        0.9963788986206055,
        0.9999561905860901
      ],
      "min": [
        0.0067125000059604645,
        0.00464099645614624
      ],
      "type": "VEC2"
    },
    {
      "bufferView": 0,
      "byteOffset": 1494120,
      "componentType": 5125,
      "count": 362226,
      "type": "SCALAR"
    },
    {
      "bufferView": 2,
      "byteOffset": 3145536,
      "componentType": 5126,
      "count": 65532,
      "max": [
        0.05566864088177681,
        0.6884111762046814,
        0.2938646376132965
      ],
      "min": [
        -0.30565717816352844,
        -0.7433223724365234,
        -0.1645209640264511
      ],
      "type": "VEC3"
    },
    {
      "bufferView": 2,
      "byteOffset": 3931920,
      "componentType": 5126,
      "count": 65532,
      "max": [
        0.9945034980773926,
        0.9999634623527527,
        0.9997847676277161
      ],
      "min": [
        -0.999984085559845,
        -1.0,
        -0.9989759922027588
      ],
      "type": "VEC3"
    },
    {
      "bufferView": 1,
      "byteOffset": 3145536,
      "componentType": 5126,
      "count": 65532,
      "max": [
        0.9991965889930725,
        0.9323726296424866
      ],
      "min": [
        0.00951979961246252,
        0.004413247108459473
      ],
      "type": "VEC2"
    },
    {
      "bufferView": 1,
      "byteOffset": 3669792,
      "componentType": 5126,
      "count": 65532,
      "max": [
        0.9991965889930725,
        0.9323726296424866
      ],
      "min": [
        0.00951979961246252,
        0.004413247108459473
      ],
      "type": "VEC2"
    },
    {
      "bufferView": 1,
      "byteOffset": 4194048,
      "componentType": 5126,
      "count": 65532,
      "max": [
        0.9991965889930725,
        0.9323726296424866
      ],
      "min": [
        0.00951979961246252,
        0.004413247108459473
      ],
      "type": "VEC2"
    },
    {
      "bufferView": 0,
      "byteOffset": 2943024,
      "componentType": 5125,
      "count": 358812,
      "type": "SCALAR"
    },
    {
      "bufferView": 2,
      "byteOffset": 4718304,
      "componentType": 5126,
      "count": 65532,
      "max": [
        -0.03270915895700455,
        0.6508476734161377,
        0.24279910326004028
      ],
      "min": [
        -0.2791382968425751,
        -0.7428907752037048,
        -0.14696350693702698
      ],
      "type": "VEC3"
    },
    {
      "bufferView": 2,
      "byteOffset": 5504688,
      "componentType": 5126,
      "count": 65532,
      "max": [
        0.999209463596344,
        0.9999608993530273,
        0.9999953508377075
      ],
      "min": [
        -0.9999996423721313,
        -0.9999995231628418,
        -0.999928891658783
      ],
      "type": "VEC3"
    },
    {
      "bufferView": 1,
      "byteOffset": 4718304,
      "componentType": 5126,
      "count": 65532,
      "max": [
        0.9961981773376465,
        0.9991300702095032
      ],
      "min": [
        0.005694069899618626,
        0.005793869495391846
      ],
      "type": "VEC2"
    },
    {
      "bufferView": 1,
      "byteOffset": 5242560,
      "componentType": 5126,
      "count": 65532,
      "max": [
        0.9961981773376465,
        0.9991300702095032
      ],
      "min": [
        0.005694069899618626,
        0.005793869495391846
      ],
      "type": "VEC2"
    },
    {
      "bufferView": 1,
      "byteOffset": 5766816,
      "componentType": 5126,
      "count": 65532,
      "max": [
        0.9961981773376465,
        0.9991300702095032
      ],
      "min": [
        0.005694069899618626,
        0.005793869495391846
      ],
      "type": "VEC2"
    },
    {
      "bufferView": 0,
      "byteOffset": 4378272,
      "componentType": 5125,
      "count": 342507,
      "type": "SCALAR"
    },
    {
      "bufferView": 2,
      "byteOffset": 6291072,
      "componentType": 5126,
      "count": 65532,
      "max": [
        -0.02719482034444809,
        0.6268558502197266,
        0.2868701219558716
      ],
      "min": [
        -0.24302418529987335,
        -0.7430042624473572,
        -0.18420641124248505
      ],
      "type": "VEC3"
    },
    {
      "bufferView": 2,
      "byteOffset": 7077456,
      "componentType": 5126,
      "count": 65532,
      "max": [
        0.9630125761032104,
        0.9999067187309265,
        0.9998719096183777
      ],
      "min": [
        -0.999978244304657,
        -1.0,
        -0.999883770942688
      ],
      "type": "VEC3"
    },
    {
      "bufferView": 1,
      "byteOffset": 6291072,
      "componentType": 5126,
      "count": 65532,
      "max": [
        0.9975934028625488,
        0.9999065399169922
      ],
      "min": [
        0.00472482992336154,
        0.02127927541732788
      ],
      "type": "VEC2"
    },
    {
      "bufferView": 1,
      "byteOffset": 6815328,
      "componentType": 5126,
      "count": 65532,
      "max": [
        0.9975934028625488,
        0.9999065399169922
      ],
      "min": [
        0.00472482992336154,
        0.02127927541732788
      ],
      "type": "VEC2"
    },
    {
      "bufferView": 1,
      "byteOffset": 7339584,
      "componentType": 5126,
      "count": 65532,
      "max": [
        0.9975934028625488,
        0.9999065399169922
      ],
      "min": [
        0.00472482992336154,
        0.02127927541732788
      ],
      "type": "VEC2"
    },
    {
      "bufferView": 0,
      "byteOffset": 5748300,
      "componentType": 5125,
      "count": 328320,
      "type": "SCALAR"
    },
    {
      "bufferView": 2,
      "byteOffset": 7863840,
      "componentType": 5126,
      "count": 65532,
      "max": [
        0.10089681297540665,
        0.5352347493171692,
        0.26497766375541687
      ],
      "min": [
        -0.25136151909828186,
        -0.7426098585128784,
        -0.19351591169834137
      ],
      "type": "VEC3"
    },
    {
      "bufferView": 2,
      "byteOffset": 8650224,
      "componentType": 5126,
      "count": 65532,
      "max": [
        0.9996130466461182,
        0.9999590516090393,
        0.9999819397926331
      ],
      "min": [
        -0.9998605251312256,
        -1.0,
        -0.9995297789573669
      ],
      "type": "VEC3"
    },
    {
      "bufferView": 1,
      "byteOffset": 7863840,
      "componentType": 5126,
      "count": 65532,
      "max": [
        0.995303750038147,
        0.9965804219245911
      ],
      "min": [
        7.886999810580164e-05,
        0.028271079063415527
      ],
      "type": "VEC2"
    },
    {
      "bufferView": 1,
      "byteOffset": 8388096,
      "componentType": 5126,
      "count": 65532,
      "max": [
        0.995303750038147,
        0.9965804219245911
      ],
      "min": [
        7.886999810580164e-05,
        0.028271079063415527
      ],
      "type": "VEC2"
    },
    {
      "bufferView": 1,
      "byteOffset": 8912352,
      "componentType": 5126,
      "count": 65532,
      "max": [
        0.995303750038147,
        0.9965804219245911
      ],
      "min": [
        7.886999810580164e-05,
        0.028271079063415527
      ],
      "type": "VEC2"
    },
    {
      "bufferView": 0,
      "byteOffset": 7061580,
      "componentType": 5125,
      "count": 343434,
      "type": "SCALAR"
    },
    {
      "bufferView": 2,
      "byteOffset": 9436608,
      "componentType": 5126,
      "count": 65532,
      "max": [
        0.12431871145963669,
        0.5798618793487549,
        0.35260558128356934
      ],
      "min": [
        -0.18853187561035156,
        -0.74220871925354,
        -0.20778895914554596
      ],
      "type": "VEC3"
    },
    {
      "bufferView": 2,
      "byteOffset": 10222992,
      "componentType": 5126,
      "count": 65532,
      "max": [
        0.9998819828033447,
        0.9999622702598572,
        0.9999522566795349
      ],
      "min": [
        -0.9998493790626526,
        -0.9999447464942932,
        -0.999999463558197
      ],
      "type": "VEC3"
    },
    {
      "bufferView": 1,
      "byteOffset": 9436608,
      "componentType": 5126,
      "count": 65532,
      "max": [
        0.9927043318748474,
        0.9999993443489075
      ],
      "min": [
        1.5999999902760464e-07,
        9.357929229736328e-06
      ],
      "type": "VEC2"
    },
    {
      "bufferView": 1,
      "byteOffset": 9960864,
      "componentType": 5126,
      "count": 65532,
      "max": [
        0.9927043318748474,
        0.9999993443489075
      ],
      "min": [
        1.5999999902760464e-07,
        9.357929229736328e-06
      ],
      "type": "VEC2"
    },
    {
      "bufferView": 1,
      "byteOffset": 10485120,
      "componentType": 5126,
      "count": 65532,
      "max": [
        0.9927043318748474,
        0.9999993443489075
      ],
      "min": [
        1.5999999902760464e-07,
        9.357929229736328e-06
      ],
      "type": "VEC2"
    },
    {
      "bufferView": 0,
      "byteOffset": 8435316,
      "componentType": 5125,
      "count": 331470,
      "type": "SCALAR"
    },
    {
      "bufferView": 2,
      "byteOffset": 11009376,
      "componentType": 5126,
      "count": 65532,
      "max": [
        0.18914936482906342,
        0.5996941924095154,
        0.34567493200302124
      ],
      "min": [
        -0.08662354201078415,
        -0.618646502494812,
        -0.2648465633392334
      ],
      "type": "VEC3"
    },
    {
      "bufferView": 2,
      "byteOffset": 11795760,
      "componentType": 5126,
      "count": 65532,
      "max": [
        0.9998840689659119,
        0.9999563694000244,
        0.9999810457229614
      ],
      "min": [
        -0.9999237060546875,
        -0.9999829530715942,
        -0.999999463558197
      ],
      "type": "VEC3"
    },
    {
      "bufferView": 1,
      "byteOffset": 11009376,
      "componentType": 5126,
      "count": 65532,
      "max": [
        0.9996486306190491,
        0.9999639391899109
      ],
      "min": [
        0.000119270000141114,
        9.948015213012695e-05
      ],
      "type": "VEC2"
    },
    {
      "bufferView": 1,
      "byteOffset": 11533632,
      "componentType": 5126,
      "count": 65532,
      "max": [
        0.9996486306190491,
        0.9999639391899109
      ],
      "min": [
        0.000119270000141114,
        9.948015213012695e-05
      ],
      "type": "VEC2"
    },
    {
      "bufferView": 1,
      "byteOffset": 12057888,
      "componentType": 5126,
      "count": 65532,
      "max": [
        0.9996486306190491,
        0.9999639391899109
      ],
      "min": [
        0.000119270000141114,
        9.948015213012695e-05
      ],
      "type": "VEC2"
    },
    {
      "bufferView": 0,
      "byteOffset": 9761196,
      "componentType": 5125,
      "count": 329067,
      "type": "SCALAR"
    },
    {
      "bufferView": 2,
      "byteOffset": 12582144,
      "componentType": 5126,
      "count": 65532,
      "max": [
        0.19337306916713715,
        0.590632975101471,
        0.35211801528930664
      ],
      "min": [
        -0.04791826009750366,
        -0.5909373164176941,
        -0.28740406036376953
      ],
      "type": "VEC3"
    },
    {
      "bufferView": 2,
      "byteOffset": 13368528,
      "componentType": 5126,
      "count": 65532,
      "max": [
        0.9999997615814209,
        0.9999437928199768,
        0.9999976754188538
      ],
      "min": [
        -0.9980093836784363,
        -0.9999978542327881,
        -0.9998497366905212
      ],
      "type": "VEC3"
    },
    {
      "bufferView": 1,
      "byteOffset": 12582144,
      "componentType": 5126,
      "count": 65532,
      "max": [
        0.996548056602478,
        0.9917446970939636
      ],
      "min": [
        0.0036044400185346603,
        0.00823521614074707
      ],
      "type": "VEC2"
    },
    {
      "bufferView": 1,
      "byteOffset": 13106400,
      "componentType": 5126,
      "count": 65532,
      "max": [
        0.996548056602478,
        0.9917446970939636
      ],
      "min": [
        0.0036044400185346603,
        0.00823521614074707
      ],
      "type": "VEC2"
    },
    {
      "bufferView": 1,
      "byteOffset": 13630656,
      "componentType": 5126,
      "count": 65532,
      "max": [
        0.996548056602478,
        0.9917446970939636
      ],
      "min": [
        0.0036044400185346603,
        0.00823521614074707
      ],
      "type": "VEC2"
    },
    {
      "bufferView": 0,
      "byteOffset": 11077464,
      "componentType": 5125,
      "count": 349671,
      "type": "SCALAR"
    },
    {
      "bufferView": 2,
      "byteOffset": 14154912,
      "componentType": 5126,
      "count": 65532,
      "max": [
        0.18269450962543488,
        0.5596324801445007,
        0.3374509811401367
      ],
      "min": [
        -0.034864868968725204,
        -0.6259419918060303,
        -0.32301974296569824
      ],
      "type": "VEC3"
    },
    {
      "bufferView": 2,
      "byteOffset": 14941296,
      "componentType": 5126,
      "count": 65532,
      "max": [
        0.9999803304672241,
        0.9999964237213135,
        0.9999868273735046
      ],
      "min": [
        -0.9987220168113708,
        -0.9999978542327881,
        -0.9999443292617798
      ],
      "type": "VEC3"
    },
    {
      "bufferView": 1,
      "byteOffset": 14154912,
      "componentType": 5126,
      "count": 65532,
      "max": [
        0.997310221195221,
        0.9998830556869507
      ],
      "min": [
        0.002159510040655732,
        0.0051119327545166016
      ],
      "type": "VEC2"
    },
    {
      "bufferView": 1,
      "byteOffset": 14679168,
      "componentType": 5126,
      "count": 65532,
      "max": [
        0.997310221195221,
        0.9998830556869507
      ],
      "min": [
        0.002159510040655732,
        0.0051119327545166016
      ],
      "type": "VEC2"
    },
    {
      "bufferView": 1,
      "byteOffset": 15203424,
      "componentType": 5126,
      "count": 65532,
      "max": [
        0.997310221195221,
        0.9998830556869507
      ],
      "min": [
        0.002159510040655732,
        0.0051119327545166016
      ],
      "type": "VEC2"
    },
    {
      "bufferView": 0,
      "byteOffset": 12476148,
      "componentType": 5125,
      "count": 333681,
      "type": "SCALAR"
    },
    {
      "bufferView": 2,
      "byteOffset": 15727680,
      "componentType": 5126,
      "count": 65532,
      "max": [
        0.21488626301288605,
        0.5326940417289734,
        0.3053230345249176
      ],
      "min": [
        -0.010163179598748684,
        -0.7426042556762695,
        -0.3853611946105957
      ],
      "type": "VEC3"
    },
    {
      "bufferView": 2,
      "byteOffset": 16514064,
      "componentType": 5126,
      "count": 65532,
      "max": [
        0.999620258808136,
        0.9999783039093018,
        0.9999004006385803
      ],
      "min": [
        -0.9999797940254211,
        -1.0,
        -0.9995701909065247
      ],
      "type": "VEC3"
    },
    {
      "bufferView": 1,
      "byteOffset": 15727680,
      "componentType": 5126,
      "count": 65532,
      "max": [
        0.9896897077560425,
        0.9998756051063538
      ],
      "min": [
        8.37400002637878e-05,
        0.010431945323944092
      ],
      "type": "VEC2"
    },
    {
      "bufferView": 1,
      "byteOffset": 16251936,
      "componentType": 5126,
      "count": 65532,
      "max": [
        0.9896897077560425,
        0.9998756051063538
      ],
      "min": [
        8.37400002637878e-05,
        0.010431945323944092
      ],
      "type": "VEC2"
    },
    {
      "bufferView": 1,
      "byteOffset": 16776192,
      "componentType": 5126,
      "count": 65532,
      "max": [
        0.9896897077560425,
        0.9998756051063538
      ],
      "min": [
        8.37400002637878e-05,
        0.010431945323944092
      ],
      "type": "VEC2"
    },
    {
      "bufferView": 0,
      "byteOffset": 13810872,
      "componentType": 5125,
      "count": 347205,
      "type": "SCALAR"
    },
    {
      "bufferView": 2,
      "byteOffset": 17300448,
      "componentType": 5126,
      "count": 65532,
      "max": [
        0.3181997537612915,
        0.7121597528457642,
        0.22281140089035034
      ],
      "min": [
        0.0426957905292511,
        -0.7426254153251648,
        -0.38080912828445435
      ],
      "type": "VEC3"
    },
    {
      "bufferView": 2,
      "byteOffset": 18086832,
      "componentType": 5126,
      "count": 65532,
      "max": [
        0.999889075756073,
        0.9999983906745911,
        0.9999722242355347
      ],
      "min": [
        -0.9982469081878662,
        -1.0,
        -0.9999662637710571
      ],
      "type": "VEC3"
    },
    {
      "bufferView": 1,
      "byteOffset": 17300448,
      "componentType": 5126,
      "count": 65532,
      "max": [
        0.9973785281181335,
        0.9904196858406067
      ],
      "min": [
        0.014670790173113346,
        0.006516754627227783
      ],
      "type": "VEC2"
    },
    {
      "bufferView": 1,
      "byteOffset": 17824704,
      "componentType": 5126,
      "count": 65532,
      "max": [
        0.9973785281181335,
        0.9904196858406067
      ],
      "min": [
        0.014670790173113346,
        0.006516754627227783
      ],
      "type": "VEC2"
    },
    {
      "bufferView": 1,
      "byteOffset": 18348960,
      "componentType": 5126,
      "count": 65532,
      "max": [
        0.9973785281181335,
        0.9904196858406067
      ],
      "min": [
        0.014670790173113346,
        0.006516754627227783
      ],
      "type": "VEC2"
    },
    {
      "bufferView": 0,
      "byteOffset": 15199692,
      "componentType": 5125,
      "count": 338658,
      "type": "SCALAR"
    },
    {
      "bufferView": 2,
      "byteOffset": 18873216,
      "componentType": 5126,
      "count": 65532,
      "max": [
        0.31466275453567505,
        0.6928231716156006,
        0.2110043317079544
      ],
      "min": [
        0.08292736858129501,
        -0.7299593091011047,
        -0.37749865651130676
      ],
      "type": "VEC3"
    },
    {
      "bufferView": 2,
      "byteOffset": 19659600,
      "componentType": 5126,
      "count": 65532,
      "max": [
        0.9999955892562866,
        0.9999564290046692,
        0.9998580813407898
      ],
      "min": [
        -0.9981381893157959,
        -0.9996259212493896,
        -0.9999662637710571
      ],
      "type": "VEC3"
    },
    {
      "bufferView": 1,
      "byteOffset": 18873216,
      "componentType": 5126,
      "count": 65532,
      "max": [
        0.9981828331947327,
        0.9868999123573303
      ],
      "min": [
        0.033117201179265976,
        0.012263596057891846
      ],
      "type": "VEC2"
    },
    {
      "bufferView": 1,
      "byteOffset": 19397472,
      "componentType": 5126,
      "count": 65532,
      "max": [
        0.9981828331947327,
        0.9868999123573303
      ],
      "min": [
        0.033117201179265976,
        0.012263596057891846
      ],
      "type": "VEC2"
    },
    {
      "bufferView": 1,
      "byteOffset": 19921728,
      "componentType": 5126,
      "count": 65532,
      "max": [
        0.9981828331947327,
        0.9868999123573303
      ],
      "min": [
        0.033117201179265976,
        0.012263596057891846
      ],
      "type": "VEC2"
    },
    {
      "bufferView": 0,
      "byteOffset": 16554324,
      "componentType": 5125,
      "count": 356478,
      "type": "SCALAR"
    },
    {
      "bufferView": 2,
      "byteOffset": 20445984,
      "componentType": 5126,
      "count": 65532,
      "max": [
        0.3544023633003235,
        0.6943948864936829,
        0.20974647998809814
      ],
      "min": [
        0.08507365733385086,
        -0.7431326508522034,
        -0.4189319610595703
      ],
      "type": "VEC3"
    },
    {
      "bufferView": 2,
      "byteOffset": 21232368,
      "componentType": 5126,
      "count": 65532,
      "max": [
        0.9999511241912842,
        0.9998487234115601,
        0.9999859929084778
      ],
      "min": [
        -0.9998731017112732,
        -0.9999995231628418,
        -0.9999210834503174
      ],
      "type": "VEC3"
    },
    {
      "bufferView": 1,
      "byteOffset": 20445984,
      "componentType": 5126,
      "count": 65532,
      "max": [
        0.9996302127838135,
        0.9940974712371826
      ],
      "min": [
        3.911000021616928e-05,
        0.0005778074264526367
      ],
      "type": "VEC2"
    },
    {
      "bufferView": 1,
      "byteOffset": 20970240,
      "componentType": 5126,
      "count": 65532,
      "max": [
        0.9996302127838135,
        0.9940974712371826
      ],
      "min": [
        3.911000021616928e-05,
        0.0005778074264526367
      ],
      "type": "VEC2"
    },
    {
      "bufferView": 1,
      "byteOffset": 21494496,
      "componentType": 5126,
      "count": 65532,
      "max": [
        0.9996302127838135,
        0.9940974712371826
      ],
      "min": [
        3.911000021616928e-05,
        0.0005778074264526367
      ],
      "type": "VEC2"
    },
    {
      "bufferView": 0,
      "byteOffset": 17980236,
      "componentType": 5125,
      "count": 343464,
      "type": "SCALAR"
    },
    {
      "bufferView": 2,
      "byteOffset": 22018752,
      "componentType": 5126,
      "count": 65532,
      "max": [
        0.46582522988319397,
        0.7121784687042236,
        0.18927691876888275
      ],
      "min": [
        0.16350430250167847,
        -0.7467681169509888,
        -0.481928288936615
      ],
      "type": "VEC3"
    },
    {
      "bufferView": 2,
      "byteOffset": 22805136,
      "componentType": 5126,
      "count": 65532,
      "max": [
        0.9999262094497681,
        0.9999983906745911,
        0.9999964833259583
      ],
      "min": [
        -0.9999529123306274,
        -1.0,
        -0.9999212026596069
      ],
      "type": "VEC3"
    },
    {
      "bufferView": 1,
      "byteOffset": 22018752,
      "componentType": 5126,
      "count": 65532,
      "max": [
        0.9999967217445374,
        0.9996986389160156
      ],
      "min": [
        1.3689999832422473e-05,
        0.0008917450904846191
      ],
      "type": "VEC2"
    },
    {
      "bufferView": 1,
      "byteOffset": 22543008,
      "componentType": 5126,
      "count": 65532,
      "max": [
        0.9999967217445374,
        0.9996986389160156
      ],
      "min": [
        1.3689999832422473e-05,
        0.0008917450904846191
      ],
      "type": "VEC2"
    },
    {
      "bufferView": 1,
      "byteOffset": 23067264,
      "componentType": 5126,
      "count": 65532,
      "max": [
        0.9999967217445374,
        0.9996986389160156
      ],
      "min": [
        1.3689999832422473e-05,
        0.0008917450904846191
      ],
      "type": "VEC2"
    },
    {
      "bufferView": 0,
      "byteOffset": 19354092,
      "componentType": 5125,
      "count": 344517,
      "type": "SCALAR"
    },
    {
      "bufferView": 2,
      "byteOffset": 23591520,
      "componentType": 5126,
      "count": 65532,
      "max": [
        0.4790140986442566,
        0.7120935320854187,
        0.15219856798648834
      ],
      "min": [
        -0.5461116433143616,
        -0.7464845776557922,
        -0.5107566118240356
      ],
      "type": "VEC3"
    },
    {
      "bufferView": 2,
      "byteOffset": 24377904,
      "componentType": 5126,
      "count": 65532,
      "max": [
        0.9999873638153076,
        0.9999549984931946,
        0.9999967813491821
      ],
      "min": [
        -0.9999774098396301,
        -0.9999796152114868,
        -0.9999927878379822
      ],
      "type": "VEC3"
    },
    {
      "bufferView": 1,
      "byteOffset": 23591520,
      "componentType": 5126,
      "count": 65532,
      "max": [
        0.9961121678352356,
        0.9926599860191345
      ],
      "min": [
        0.006194150075316429,
        0.00011199712753295898
      ],
      "type": "VEC2"
    },
    {
      "bufferView": 1,
      "byteOffset": 24115776,
      "componentType": 5126,
      "count": 65532,
      "max": [
        0.9961121678352356,
        0.9926599860191345
      ],
      "min": [
        0.006194150075316429,
        0.00011199712753295898
      ],
      "type": "VEC2"
    },
    {
      "bufferView": 1,
      "byteOffset": 24640032,
      "componentType": 5126,
      "count": 65532,
      "max": [
        0.9961121678352356,
        0.9926599860191345
      ],
      "min": [
        0.006194150075316429,
        0.00011199712753295898
      ],
      "type": "VEC2"
    },
    {
      "bufferView": 0,
      "byteOffset": 20732160,
      "componentType": 5125,
      "count": 358503,
      "type": "SCALAR"
    },
    {
      "bufferView": 2,
      "byteOffset": 25164288,
      "componentType": 5126,
      "count": 65532,
      "max": [
        0.1877928227186203,
        0.7056211829185486,
        0.331930935382843
      ],
      "min": [
        -0.5182541012763977,
        -0.7428088784217834,
        -0.3864299952983856
      ],
      "type": "VEC3"
    },
    {
      "bufferView": 2,
      "byteOffset": 25950672,
      "componentType": 5126,
      "count": 65532,
      "max": [
        0.9999533891677856,
        0.9868547916412354,
        0.9999961853027344
      ],
      "min": [
        -0.9996542930603027,
        -1.0,
        -0.9886748790740967
      ],
      "type": "VEC3"
    },
    {
      "bufferView": 1,
      "byteOffset": 25164288,
      "componentType": 5126,
      "count": 65532,
      "max": [
        0.9996302127838135,
        0.9999993443489075
      ],
      "min": [
        1.3769999895885121e-05,
        9.357929229736328e-06
      ],
      "type": "VEC2"
    },
    {
      "bufferView": 1,
      "byteOffset": 25688544,
      "componentType": 5126,
      "count": 65532,
      "max": [
        0.9996302127838135,
        0.9999993443489075
      ],
      "min": [
        1.3769999895885121e-05,
        9.357929229736328e-06
      ],
      "type": "VEC2"
    },
    {
      "bufferView": 1,
      "byteOffset": 26212800,
      "componentType": 5126,
      "count": 65532,
      "max": [
        0.9996302127838135,
        0.9999993443489075
      ],
      "min": [
        1.3769999895885121e-05,
        9.357929229736328e-06
      ],
      "type": "VEC2"
    },
    {
      "bufferView": 0,
      "byteOffset": 22166172,
      "componentType": 5125,
      "count": 254886,
      "type": "SCALAR"
    },
    {
      "bufferView": 2,
      "byteOffset": 26737056,
      "componentType": 5126,
      "count": 65532,
      "max": [
        0.4719853699207306,
        0.7113720178604126,
        0.35266101360321045
      ],
      "min": [
        -0.4795960485935211,
        -0.7464198470115662,
        -0.5096970200538635
      ],
      "type": "VEC3"
    },
    {
      "bufferView": 2,
      "byteOffset": 27523440,
      "componentType": 5126,
      "count": 65532,
      "max": [
        0.999999463558197,
        0.9995831847190857,
        0.9999951720237732
      ],
      "min": [
        -0.9999223351478577,
        -1.0,
        -0.9998524188995361
      ],
      "type": "VEC3"
    },
    {
      "bufferView": 1,
      "byteOffset": 26737056,
      "componentType": 5126,
      "count": 65532,
      "max": [
        0.9991275668144226,
        0.9999648928642273
      ],
      "min": [
        2.936000055342447e-05,
        0.00028765201568603516
      ],
      "type": "VEC2"
    },
    {
      "bufferView": 1,
      "byteOffset": 27261312,
      "componentType": 5126,
      "count": 65532,
      "max": [
        0.9991275668144226,
        0.9999648928642273
      ],
      "min": [
        2.936000055342447e-05,
        0.00028765201568603516
      ],
      "type": "VEC2"
    },
    {
      "bufferView": 1,
      "byteOffset": 27785568,
      "componentType": 5126,
      "count": 65532,
      "max": [
        0.9991275668144226,
        0.9999648928642273
      ],
      "min": [
        2.936000055342447e-05,
        0.00028765201568603516
      ],
      "type": "VEC2"
    },
    {
      "bufferView": 0,
      "byteOffset": 23185716,
      "componentType": 5125,
      "count": 179700,
      "type": "SCALAR"
    },
    {
      "bufferView": 2,
      "byteOffset": 28309824,
      "componentType": 5126,
      "count": 3864,
      "max": [
        -0.015875110402703285,
        0.5996941924095154,
        0.35266101360321045
      ],
      "min": [
        -0.06850604712963104,
        -0.5757151246070862,
        -0.20859432220458984
      ],
      "type": "VEC3"
    },
    {
      "bufferView": 2,
      "byteOffset": 28356192,
      "componentType": 5126,
      "count": 3864,
      "max": [
        0.9633275866508484,
        0.9989243745803833,
        0.9998616576194763
      ],
      "min": [
        -0.9951847195625305,
        -0.9990595579147339,
        -0.9779331088066101
      ],
      "type": "VEC3"
    },
    {
      "bufferView": 1,
      "byteOffset": 28309824,
      "componentType": 5126,
      "count": 3864,
      "max": [
        0.9926609992980957,
        0.9987916350364685
      ],
      "min": [
        0.00024311999732162803,
        6.616115570068359e-06
      ],
      "type": "VEC2"
    },
    {
      "bufferView": 1,
      "byteOffset": 28340736,
      "componentType": 5126,
      "count": 3864,
      "max": [
        0.9926609992980957,
        0.9987916350364685
      ],
      "min": [
        0.00024311999732162803,
        6.616115570068359e-06
      ],
      "type": "VEC2"
    },
    {
      "bufferView": 1,
      "byteOffset": 28371648,
      "componentType": 5126,
      "count": 3864,
      "max": [
        0.9926609992980957,
        0.9987916350364685
      ],
      "min": [
        0.00024311999732162803,
        6.616115570068359e-06
      ],
      "type": "VEC2"
    },
    {
      "bufferView": 0,
      "byteOffset": 23904516,
      "componentType": 5125,
      "count": 6609,
      "type": "SCALAR"
    }
  ],
  "asset": {
    "extras": {
      "author": "sanjaysinghfazilka (https://sketchfab.com/sanjaysinghfazilka)",
      "license": "CC-BY-4.0 (http://creativecommons.org/licenses/by/4.0/)",
      "source": "https://sketchfab.com/3d-models/cartoon-mouse-characters-6c0e70ec34d1452890e33db530aff686",
      "title": "Cartoon Mouse Characters"
    },
    "generator": "Sketchfab-16.74.0",
    "version": "2.0"
  },
  "bufferViews": [
    {
      "buffer": 0,
      "byteLength": 23930952,
      "name": "floatBufferViews",
      "target": 34963
    },
    {
      "buffer": 0,
      "byteLength": 28402560,
      "byteOffset": 23930952,
      "byteStride": 8,
      "name": "floatBufferViews",
      "target": 34962
    },
    {
      "buffer": 0,
      "byteLength": 28402560,
      "byteOffset": 52333512,
      "byteStride": 12,
      "name": "floatBufferViews",
      "target": 34962
    }
  ],
  "buffers": [
    {
      "byteLength": 80736072,
      "uri": "scene.bin"
    }
  ],
  "images": [
    {
      "uri": "textures/pbr_material_baseColor.png"
    },
    {
      "uri": "textures/pbr_material_metallicRoughness.png"
    }
  ],
  "materials": [
    {
      "name": "pbr_material",
      "pbrMetallicRoughness": {
        "baseColorTexture": {
          "index": 0
        },
        "metallicRoughnessTexture": {
          "index": 1,
          "texCoord": 1
        }
      }
    }
  ],
  "meshes": [
    {
      "name": "Object_0",
      "primitives": [
        {
          "attributes": {
            "NORMAL": 1,
            "POSITION": 0,
            "TEXCOORD_0": 2,
            "TEXCOORD_1": 3,
            "TEXCOORD_2": 4
          },
          "indices": 5,
          "material": 0,
          "mode": 4
        }
      ]
    },
    {
      "name": "Object_1",
      "primitives": [
        {
          "attributes": {
            "NORMAL": 7,
            "POSITION": 6,
            "TEXCOORD_0": 8,
            "TEXCOORD_1": 9,
            "TEXCOORD_2": 10
          },
          "indices": 11,
          "material": 0,
          "mode": 4
        }
      ]
    },
    {
      "name": "Object_2",
      "primitives": [
        {
          "attributes": {
            "NORMAL": 13,
            "POSITION": 12,
            "TEXCOORD_0": 14,
            "TEXCOORD_1": 15,
            "TEXCOORD_2": 16
          },
          "indices": 17,
          "material": 0,
          "mode": 4
        }
      ]
    },
    {
      "name": "Object_3",
      "primitives": [
        {
          "attributes": {
            "NORMAL": 19,
            "POSITION": 18,
            "TEXCOORD_0": 20,
            "TEXCOORD_1": 21,
            "TEXCOORD_2": 22
          },
          "indices": 23,
          "material": 0,
          "mode": 4
        }
      ]
    },
    {
      "name": "Object_4",
      "primitives": [
        {
          "attributes": {
            "NORMAL": 25,
            "POSITION": 24,
            "TEXCOORD_0": 26,
            "TEXCOORD_1": 27,
            "TEXCOORD_2": 28
          },
          "indices": 29,
          "material": 0,
          "mode": 4
        }
      ]
    },
    {
      "name": "Object_5",
      "primitives": [
        {
          "attributes": {
            "NORMAL": 31,
            "POSITION": 30,
            "TEXCOORD_0": 32,
            "TEXCOORD_1": 33,
            "TEXCOORD_2": 34
          },
          "indices": 35,
          "material": 0,
          "mode": 4
        }
      ]
    },
    {
      "name": "Object_6",
      "primitives": [
        {
          "attributes": {
            "NORMAL": 37,
            "POSITION": 36,
            "TEXCOORD_0": 38,
            "TEXCOORD_1": 39,
            "TEXCOORD_2": 40
          },
          "indices": 41,
          "material": 0,
          "mode": 4
        }
      ]
    },
    {
      "name": "Object_7",
      "primitives": [
        {
          "attributes": {
            "NORMAL": 43,
            "POSITION": 42,
            "TEXCOORD_0": 44,
            "TEXCOORD_1": 45,
            "TEXCOORD_2": 46
          },
          "indices": 47,
          "material": 0,
          "mode": 4
        }
      ]
    },
    {
      "name": "Object_8",
      "primitives": [
        {
          "attributes": {
            "NORMAL": 49,
            "POSITION": 48,
            "TEXCOORD_0": 50,
            "TEXCOORD_1": 51,
            "TEXCOORD_2": 52
          },
          "indices": 53,
          "material": 0,
          "mode": 4
        }
      ]
    },
    {
      "name": "Object_9",
      "primitives": [
        {
          "attributes": {
            "NORMAL": 55,
            "POSITION": 54,
            "TEXCOORD_0": 56,
            "TEXCOORD_1": 57,
            "TEXCOORD_2": 58
          },
          "indices": 59,
          "material": 0,
          "mode": 4
        }
      ]
    },
    {
      "name": "Object_10",
      "primitives": [
        {
          "attributes": {
            "NORMAL": 61,
            "POSITION": 60,
            "TEXCOORD_0": 62,
            "TEXCOORD_1": 63,
            "TEXCOORD_2": 64
          },
          "indices": 65,
          "material": 0,
          "mode": 4
        }
      ]
    },
    {
      "name": "Object_11",
      "primitives": [
        {
          "attributes": {
            "NORMAL": 67,
            "POSITION": 66,
            "TEXCOORD_0": 68,
            "TEXCOORD_1": 69,
            "TEXCOORD_2": 70
          },
          "indices": 71,
          "material": 0,
          "mode": 4
        }
      ]
    },
    {
      "name": "Object_12",
      "primitives": [
        {
          "attributes": {
            "NORMAL": 73,
            "POSITION": 72,
            "TEXCOORD_0": 74,
            "TEXCOORD_1": 75,
            "TEXCOORD_2": 76
          },
          "indices": 77,
          "material": 0,
          "mode": 4
        }
      ]
    },
    {
      "name": "Object_13",
      "primitives": [
        {
          "attributes": {
            "NORMAL": 79,
            "POSITION": 78,
            "TEXCOORD_0": 80,
            "TEXCOORD_1": 81,
            "TEXCOORD_2": 82
          },
          "indices": 83,
          "material": 0,
          "mode": 4
        }
      ]
    },
    {
      "name": "Object_14",
      "primitives": [
        {
          "attributes": {
            "NORMAL": 85,
            "POSITION": 84,
            "TEXCOORD_0": 86,
            "TEXCOORD_1": 87,
            "TEXCOORD_2": 88
          },
          "indices": 89,
          "material": 0,
          "mode": 4
        }
      ]
    },
    {
      "name": "Object_15",
      "primitives": [
        {
          "attributes": {
            "NORMAL": 91,
            "POSITION": 90,
            "TEXCOORD_0": 92,
            "TEXCOORD_1": 93,
            "TEXCOORD_2": 94
          },
          "indices": 95,
          "material": 0,
          "mode": 4
        }
      ]
    },
    {
      "name": "Object_16",
      "primitives": [
        {
          "attributes": {
            "NORMAL": 97,
            "POSITION": 96,
            "TEXCOORD_0": 98,
            "TEXCOORD_1": 99,
            "TEXCOORD_2": 100
          },
          "indices": 101,
          "material": 0,
          "mode": 4
        }
      ]
    },
    {
      "name": "Object_17",
      "primitives": [
        {
          "attributes": {
            "NORMAL": 103,
            "POSITION": 102,
            "TEXCOORD_0": 104,
            "TEXCOORD_1": 105,
            "TEXCOORD_2": 106
          },
          "indices": 107,
          "material": 0,
          "mode": 4
        }
      ]
    },
    {
      "name": "Object_18",
      "primitives": [
        {
          "attributes": {
            "NORMAL": 109,
            "POSITION": 108,
            "TEXCOORD_0": 110,
            "TEXCOORD_1": 111,
            "TEXCOORD_2": 112
          },
          "indices": 113,
          "material": 0,
          "mode": 4
        }
      ]
    }
  ],
  "nodes": [
    {
      "children": [
        1
      ],
      "matrix": [
        1.0,
        0.0,
        0.0,
        0.0,
        0.0,
        2.220446049250313e-16,
        -1.0,
        0.0,
        0.0,
        1.0,
        2.220446049250313e-16,
        0.0,
        0.0,
        0.0,
        0.0,
        1.0
      ],
      "name": "Sketchfab_model"
    },
    {
      "children": [
        2
      ],
      "name": "root"
    },
    {
      "children": [
        3
      ],
      "matrix": [
        1.0,
        0.0,
        0.0,
        0.0,
        0.0,
        2.220446049250313e-16,
        1.0,
        0.0,
        0.0,
        -1.0,
        2.220446049250313e-16,
        0.0,
        0.0,
        0.0,
        0.0,
        1.0
      ],
      "name": "GLTF_SceneRootNode"
    },
    {
      "children": [
        4
      ],
      "name": "world_0"
    },
    {
      "children": [
        5,
        6,
        7,
        8,
        9,
        10,
        11,
        12,
        13,
        14,
        15,
        16,
        17,
        18,
        19,
        20,
        21,
        22,
        23
      ],
      "name": "tmp1lwuk80r.obj_1"
    },
    {
      "mesh": 0,
      "name": "Object_5"
    },
    {
      "mesh": 1,
      "name": "Object_6"
    },
    {
      "mesh": 2,
      "name": "Object_7"
    },
    {
      "mesh": 3,
      "name": "Object_8"
    },
    {
      "mesh": 4,
      "name": "Object_9"
    },
    {
      "mesh": 5,
      "name": "Object_10"
    },
    {
      "mesh": 6,
      "name": "Object_11"
    },
    {
      "mesh": 7,
      "name": "Object_12"
    },
    {
      "mesh": 8,
      "name": "Object_13"
    },
    {
      "mesh": 9,
      "name": "Object_14"
    },
    {
      "mesh": 10,
      "name": "Object_15"
    },
    {
      "mesh": 11,
      "name": "Object_16"
    },
    {
      "mesh": 12,
      "name": "Object_17"
    },
    {
      "mesh": 13,
      "name": "Object_18"
    },
    {
      "mesh": 14,
      "name": "Object_19"
    },
    {
      "mesh": 15,
      "name": "Object_20"
    },
    {
      "mesh": 16,
      "name": "Object_21"
    },
    {
      "mesh": 17,
      "name": "Object_22"
    },
    {
      "mesh": 18,
      "name": "Object_23"
    }
  ],
  "samplers": [
    {
      "magFilter": 9729,
      "minFilter": 9987,
      "wrapS": 10497,
      "wrapT": 10497
    }
  ],
  "scene": 0,
  "scenes": [
    {
      "name": "Sketchfab_Scene",
      "nodes": [
        0
      ]
    }
  ],
  "textures": [
    {
      "sampler": 0,
      "source": 0
    },
    {
      "sampler": 0,
      "source": 1
    }
  ]
}
